<svg id="Icon_feather-settings" data-name="Icon feather-settings" xmlns="http://www.w3.org/2000/svg" width="34" height="34" viewBox="0 0 34 34">
  <path id="Path_1627" data-name="Path 1627" d="M22.5,18A4.5,4.5,0,1,1,18,13.5,4.5,4.5,0,0,1,22.5,18Z" transform="translate(-1 -1)" fill="none" stroke="#bebebe" stroke-linecap="round" stroke-linejoin="round" stroke-width="3"/>
  <path id="Path_1628" data-name="Path 1628" d="M27.427,21.227a2.325,2.325,0,0,0,.465,2.565l.085.085a2.82,2.82,0,1,1-3.988,3.988L23.9,27.78a2.344,2.344,0,0,0-3.974,1.663v.24a2.818,2.818,0,0,1-5.636,0v-.127a2.325,2.325,0,0,0-1.522-2.128,2.325,2.325,0,0,0-2.565.465l-.085.085a2.82,2.82,0,1,1-3.988-3.988L6.22,23.9a2.344,2.344,0,0,0-1.663-3.974h-.24a2.818,2.818,0,0,1,0-5.636h.127a2.325,2.325,0,0,0,2.128-1.522,2.325,2.325,0,0,0-.465-2.565l-.085-.085a2.82,2.82,0,1,1,3.988-3.988l.085.085a2.325,2.325,0,0,0,2.565.465h.113a2.325,2.325,0,0,0,1.409-2.128v-.24a2.818,2.818,0,0,1,5.636,0v.127a2.344,2.344,0,0,0,3.974,1.663l.085-.085a2.82,2.82,0,1,1,3.988,3.988l-.085.085a2.325,2.325,0,0,0-.465,2.565v.113a2.325,2.325,0,0,0,2.128,1.409h.24a2.818,2.818,0,0,1,0,5.636h-.127a2.325,2.325,0,0,0-2.128,1.409Z" transform="translate(0 0)" fill="none" stroke="#bebebe" stroke-linecap="round" stroke-linejoin="round" stroke-width="3"/>
</svg>
