<svg xmlns="http://www.w3.org/2000/svg" width="30" height="33" viewBox="0 0 30 33">
  <g id="Icon_feather-share-2" data-name="Icon feather-share-2" transform="translate(-3 -1.5)">
    <path id="Path_1632" data-name="Path 1632" d="M31.5,7.5A4.5,4.5,0,1,1,27,3a4.5,4.5,0,0,1,4.5,4.5Z" fill="none" stroke="#bebebe" stroke-linecap="round" stroke-linejoin="round" stroke-width="3"/>
    <path id="Path_1633" data-name="Path 1633" d="M13.5,18A4.5,4.5,0,1,1,9,13.5,4.5,4.5,0,0,1,13.5,18Z" fill="none" stroke="#bebebe" stroke-linecap="round" stroke-linejoin="round" stroke-width="3"/>
    <path id="Path_1634" data-name="Path 1634" d="M31.5,28.5A4.5,4.5,0,1,1,27,24,4.5,4.5,0,0,1,31.5,28.5Z" fill="none" stroke="#bebebe" stroke-linecap="round" stroke-linejoin="round" stroke-width="3"/>
    <path id="Path_1635" data-name="Path 1635" d="M12.885,20.265l10.245,5.97" fill="none" stroke="#bebebe" stroke-linecap="round" stroke-linejoin="round" stroke-width="3"/>
    <path id="Path_1636" data-name="Path 1636" d="M23.115,9.765l-10.23,5.97" fill="none" stroke="#bebebe" stroke-linecap="round" stroke-linejoin="round" stroke-width="3"/>
  </g>
</svg>
